Coordinates
version=1
nRows=14
nColumns=24
inDegrees=yes

Units are S.I. units (second, meters, Newtons, ...)
Angles are in degrees.

endheader
time	pelvis_tilt	pelvis_list	pelvis_rotation	pelvis_tx	pelvis_ty	pelvis_tz	hip_flexion_r	hip_adduction_r	hip_rotation_r	knee_angle_r	ankle_angle_r	subtalar_angle_r	mtp_angle_r	hip_flexion_l	hip_adduction_l	hip_rotation_l	knee_angle_l	ankle_angle_l	subtalar_angle_l	mtp_angle_l	lumbar_extension	lumbar_bending	lumbar_rotation
      4.39000000	      7.16455834	      6.23787941	      6.20899611	     -0.33182813	      0.88497996	     -0.26026867	     16.74191252	     -4.28478833	     -1.74769403	     -5.91196981	      7.23224483	     -2.81360398	      0.00000000	    -25.80472185	      7.39406185	     11.40009098	     -8.54452995	     16.74522580	      4.22355276	      0.00000000	    -28.10185064	     -4.73561066	     -9.51985919
      4.40000000	      7.34586883	      6.21040825	      6.65319617	     -0.31740278	      0.88495325	     -0.25992027	     16.24225049	     -4.24001091	     -2.55366001	     -7.03201772	      6.47262447	     -4.02450212	      0.00000000	    -25.91989989	      6.94008390	     10.13548220	    -10.35595310	     16.44370955	      6.39791112	      0.00000000	    -28.01790944	     -4.52772430	     -9.89892888
      4.41000000	      7.41498596	      6.13492724	      7.25045092	     -0.30287995	      0.88506637	     -0.25972599	     15.76500327	     -4.17434633	     -3.24431344	     -8.07140630	      5.48428713	     -5.26025258	      0.00000000	    -25.74572345	      6.38414488	      9.19119177	    -12.43194430	     15.78925461	      8.17566271	      0.00000000	    -27.75723381	     -4.23126107	    -10.40700739
      4.42000000	      7.45585666	      5.98420909	      7.84839827	     -0.28838829	      0.88542594	     -0.25950155	     15.35014794	     -4.01600362	     -3.79508828	     -9.18371526	      4.37123936	     -6.38318978	      0.00000000	    -25.35149052	      5.75899831	      8.39733699	    -14.75235047	     14.69606321	      9.63218995	      0.00000000	    -27.43687177	     -3.87032244	    -10.82619311
      4.43000000	      7.49426422	      5.75139239	      8.40819460	     -0.27405344	      0.88605076	     -0.25927031	     15.04543742	     -3.75817440	     -4.24720155	    -10.47165827	      3.53651281	     -7.20013797	      0.00000000	    -24.73422953	      5.10053954	      7.79581464	    -17.34456208	     13.09758860	     10.62134917	      0.00000000	    -27.10029747	     -3.42116735	    -11.16049622
      4.44000000	      7.57007322	      5.45203224	      8.82241434	     -0.25996522	      0.88691813	     -0.25890985	     14.86432837	     -3.39121072	     -4.55067839	    -12.00339551	      3.14936413	     -7.65818804	      0.00000000	    -23.91485054	      4.45943707	      7.18317675	    -20.21200931	     10.93351160	     11.26196241	      0.00000000	    -26.82076422	     -2.94110433	    -11.28940074
      4.45000000	      7.66618350	      5.10712144	      9.08011190	     -0.24617356	      0.88791550	     -0.25841171	     14.80637197	     -2.93761590	     -4.70712189	    -13.74390774	      3.33818612	     -7.79172437	      0.00000000	    -22.85389390	      3.85591979	      6.49192252	    -23.38100358	      8.23493937	     11.64561549	      0.00000000	    -26.59769644	     -2.45150458	    -11.23818000
      4.46000000	      7.74169413	      4.74513757	      9.18810750	     -0.23272917	      0.88889058	     -0.25782170	     14.88001361	     -2.46052897	     -4.92725593	    -15.62424629	      4.12360445	     -7.45126864	      0.00000000	    -21.49848341	      3.31158999	      5.69451981	    -26.86814161	      5.10321919	     11.87399000	      0.00000000	    -26.41714748	     -1.98089738	    -11.04371044
      4.47000000	      7.80182743	      4.31331558	      9.17362706	     -0.21955969	      0.88974705	     -0.25714629	     14.93997251	     -1.86071253	     -4.91442451	    -17.39275334	      5.30273960	     -7.14584720	      0.00000000	    -19.90116567	      2.75962480	      4.87883090	    -30.57916808	      1.66377722	     11.74652233	      0.00000000	    -26.26133495	     -1.46055317	    -10.66476190
      4.48000000	      7.85592150	      3.84810011	      9.13446353	     -0.20676464	      0.89048526	     -0.25650338	     14.92646749	     -1.24208344	     -5.07784042	    -18.96637708	      6.62626370	     -6.63462146	      0.00000000	    -18.06086665	      2.16744716	      4.04462935	    -34.52155980	     -1.78977726	     11.48138721	      0.00000000	    -26.19548091	     -0.89712232	    -10.27205659
      4.49000000	      7.88354893	      3.24788215	      9.13326891	     -0.19425381	      0.89102840	     -0.25591895	     14.74960882	     -0.45185881	     -5.12712586	    -20.12392686	      7.92603180	     -6.48150976	      0.00000000	    -15.99148723	      1.42582283	      3.32535640	    -38.63020459	     -4.85676959	     11.03993014	      0.00000000	    -26.15605667	     -0.17023036	     -9.79478073
      4.50000000	      7.85751031	      2.56559126	      9.24697596	     -0.18209033	      0.89140192	     -0.25549675	     14.44834096	      0.39317785	     -5.35045625	    -20.89453869	      9.09882367	     -6.35617145	      0.00000000	    -13.69032374	      0.57984844	      2.80970239	    -42.84339965	     -7.31715414	     10.45859743	      0.00000000	    -26.13072703	      0.67907604	     -9.39295441
      4.51000000	      7.81487821	      1.79112656	      9.50426024	     -0.17020759	      0.89170579	     -0.25528767	     13.97300585	      1.31228940	     -5.72079772	    -21.25470569	     10.11143562	     -6.36207574	      0.00000000	    -11.25701183	     -0.35053444	      2.59608527	    -47.03667068	     -8.98216389	      9.64776052	      0.00000000	    -26.13260829	      1.67367315	     -9.02184692
      4.52000000	      7.72884660	      0.99424957	      9.88711147	     -0.15859273	      0.89199781	     -0.25526166	     13.38799692	      2.22873091	     -6.23262136	    -21.27793533	     10.99092680	     -6.35788357	      0.00000000	     -8.71302898	     -1.24534314	      2.69499582	    -51.09831727	     -9.84696689	      8.58975553	      0.00000000	    -26.12428926	      2.71690846	     -8.73963068
